<svg width="67" height="66" viewBox="0 0 67 66" fill="none" xmlns="http://www.w3.org/2000/svg">
<path id="Vector" d="M53.8409 16.0092V27.2166M53.8409 27.2166V38.424M53.8409 27.2166H65M53.8409 27.2166H42.6818M38.1709 14.6083C38.1709 16.264 37.8462 17.9036 37.2153 19.4333C36.5844 20.963 35.6597 22.3529 34.4939 23.5237C33.3282 24.6945 31.9443 25.6232 30.4211 26.2568C28.898 26.8905 27.2655 27.2166 25.6169 27.2166C23.9683 27.2166 22.3358 26.8905 20.8127 26.2568C19.2896 25.6232 17.9056 24.6945 16.7399 23.5237C15.5742 22.3529 14.6494 20.963 14.0185 19.4333C13.3876 17.9036 13.0629 16.264 13.0629 14.6083C13.0629 11.2644 14.3856 8.0574 16.7399 5.69288C19.0942 3.32837 22.2874 2 25.6169 2C28.9465 2 32.1396 3.32837 34.4939 5.69288C36.8483 8.0574 38.1709 11.2644 38.1709 14.6083ZM2 57.4063V56.9953C2 50.679 4.49834 44.6214 8.94541 40.1551C13.3925 35.6888 19.424 33.1796 25.7131 33.1796C32.0022 33.1796 38.0338 35.6888 42.4808 40.1551C46.9279 44.6214 49.4262 50.679 49.4262 56.9953V56.9953C49.4262 57.2481 49.2942 57.4829 49.0768 57.6118C42.0013 61.8061 33.9305 64.0139 25.7094 63.9999C17.0401 63.9999 8.92859 61.5911 2.0032 57.4045C2.00179 57.4036 2 57.4046 2 57.4063V57.4063Z" stroke="#362B3E" stroke-opacity="0.7" stroke-width="4" stroke-linecap="round" stroke-linejoin="round"/>
</svg>
