<svg width="68" height="68" viewBox="0 0 68 68" fill="none" xmlns="http://www.w3.org/2000/svg">
<g clip-path="url(#clip0_1294_1915)">
<path d="M65.7761 30.6278C51.7402 30.6109 37.5509 30.6081 24.3082 30.6081H1.87333C1.26105 30.6081 0.761112 30.4231 0.428007 30.0734C0.124112 29.7541 -0.0230604 29.3088 0.00277911 28.7865C0.0426618 27.9826 0.750439 27.2832 1.54865 27.259C1.79525 27.2517 2.06095 27.2483 2.38451 27.2483C2.60976 27.2483 2.83782 27.25 3.0715 27.2517C3.31866 27.2534 3.572 27.2551 3.83433 27.2551H4.3118V26.089C4.31123 25.6083 4.31067 25.1411 4.3118 24.6739C4.31685 23.0266 4.93925 21.5002 6.06495 20.3758C7.19121 19.2508 8.71912 18.6301 10.3678 18.6284C12.5119 18.6262 14.656 18.6245 16.8001 18.6245C18.9443 18.6245 21.0659 18.6256 23.1606 18.6284C24.8109 18.6307 26.3383 19.2502 27.4623 20.3741C28.5858 21.4974 29.207 23.0255 29.2121 24.6767C29.2132 25.1321 29.2132 25.5881 29.2126 26.0575V27.2101H38.7884V26.7322C38.7884 26.5028 38.7884 26.2746 38.7879 26.0469C38.7873 25.5673 38.7867 25.0708 38.789 24.5857C38.8047 21.3085 41.4707 18.6374 44.7321 18.6301C46.8262 18.6256 48.9877 18.6234 51.1582 18.6234C53.3288 18.6234 55.5026 18.6256 57.7265 18.6301C60.9952 18.6363 63.6696 21.2995 63.6887 24.566C63.6915 25.0489 63.6909 25.5285 63.6898 26.0356C63.6898 26.274 63.6893 26.5163 63.6893 26.7648V27.2202L64.1437 27.2421C64.2768 27.2483 64.4195 27.2517 64.5802 27.2517C64.7661 27.2517 64.9537 27.2477 65.1346 27.2433C65.3093 27.2393 65.4902 27.2354 65.6637 27.2354C66.7996 27.2354 67.5174 27.4187 68 28.3682V29.3735C67.6062 30.2629 66.9568 30.6278 65.7828 30.6278H65.7761ZM16.758 21.9764C14.6077 21.9764 12.4344 21.982 10.2987 21.9938C8.84045 22.0017 7.76249 23.0373 7.67823 24.512C7.64902 25.018 7.65632 25.5105 7.66363 26.0311C7.667 26.2582 7.67037 26.4933 7.67037 26.7283V27.2061H25.8541V26.7283C25.8541 26.4921 25.8574 26.256 25.8608 26.0283C25.8687 25.506 25.876 25.0129 25.8451 24.5058C25.7558 23.0339 24.6767 22.0011 23.2213 21.9933C21.0693 21.982 18.8948 21.9764 16.758 21.9764ZM51.165 21.9764C48.9995 21.9764 46.8599 21.9815 44.8051 21.9916C43.2952 21.9989 42.202 23.0823 42.1476 24.6261C42.1313 25.0961 42.1352 25.5566 42.1391 26.0446C42.1408 26.265 42.1431 26.4888 42.1431 26.7181V27.196H60.3217V26.7181C60.3217 26.4826 60.3268 26.2425 60.3324 26.0103C60.3442 25.4801 60.356 24.932 60.3077 24.3878C60.1801 22.9597 59.1162 21.9966 57.6602 21.9905C55.4369 21.9809 53.2512 21.9764 51.165 21.9764Z" fill="#362B3E" fill-opacity="0.7"/>
<path d="M65.7773 67.2911C51.7577 67.2742 37.6797 67.272 24.5554 67.272H1.89477C1.27799 67.272 0.775245 67.0915 0.439332 66.7486C0.143301 66.4455 -0.00780394 66.0233 0.00230717 65.5269C0.0208442 64.6481 0.717949 63.9431 1.59031 63.9217C1.83017 63.9161 2.088 63.9133 2.40257 63.9133C2.62165 63.9133 2.84465 63.9144 3.0744 63.9161C3.31931 63.9178 3.57153 63.9189 3.83385 63.9189H4.31132V63.441C4.31132 63.2471 4.31413 63.0509 4.3175 62.8614C4.32368 62.4498 4.33042 62.0243 4.30571 61.6026C4.2119 59.9902 4.78598 58.4379 5.92292 57.2319C7.10143 55.9815 8.74841 55.2642 10.4409 55.2642C10.4937 55.2642 10.5459 55.2647 10.5987 55.2664C12.0362 55.3041 13.581 55.3215 15.4588 55.3215C16.68 55.3215 17.9209 55.3142 19.1213 55.3069C20.32 55.2996 21.5597 55.2923 22.7781 55.2923H23.1309C26.5889 55.2968 29.2037 57.9122 29.2122 61.3766C29.2133 61.819 29.2127 62.2609 29.2122 62.7208V63.8621H38.7879V62.8001C38.7879 62.3666 38.7879 61.9253 38.7879 61.484C38.7919 57.8981 41.3893 55.294 44.9636 55.2917C47.1364 55.29 49.3097 55.2895 51.4819 55.2895C53.5047 55.2895 55.5274 55.29 57.5508 55.2917C61.1015 55.2945 63.6826 57.8869 63.6882 61.4547C63.6888 61.8747 63.6882 62.2941 63.6882 62.745V63.9178H64.1657C64.3348 63.9178 64.5067 63.9217 64.6729 63.9257C64.8398 63.9296 65.0117 63.9335 65.1819 63.9335C65.4251 63.9335 65.6273 63.9251 65.8183 63.9071C65.9245 63.897 66.029 63.8919 66.1278 63.8919C67.0187 63.8919 67.6147 64.2939 67.9984 65.1541V66.0362C67.6046 66.9262 66.9552 67.2905 65.7823 67.2905H65.7756L65.7773 67.2911ZM16.816 58.6408C14.6364 58.6408 12.4311 58.6476 10.2611 58.6599C8.88885 58.6678 7.83561 59.6275 7.69967 60.9931C7.64406 61.5537 7.65754 62.1204 7.67046 62.6686C7.67607 62.9103 7.68225 63.1605 7.68225 63.4067V63.8846H25.8598V63.1464C25.8603 62.9688 25.8609 62.8035 25.8598 62.6382C25.8587 62.4864 25.8615 62.329 25.8637 62.1766C25.8693 61.8089 25.8755 61.4283 25.8351 61.0443C25.6873 59.6478 24.6251 58.6667 23.2511 58.6588C21.1115 58.6465 18.946 58.6403 16.816 58.6403V58.6408ZM51.2482 58.6397C49.0884 58.6397 46.9094 58.6459 44.7726 58.6577C43.3166 58.6656 42.2403 59.7023 42.1555 61.1787C42.1263 61.6847 42.1336 62.1761 42.1409 62.6967C42.1443 62.9232 42.1476 63.1571 42.1476 63.3904V63.8683H60.3342V63.3904C60.3342 63.1594 60.337 62.93 60.3392 62.7073C60.3448 62.2036 60.3504 61.728 60.328 61.24C60.2578 59.727 59.1747 58.6644 57.6952 58.6566C55.5449 58.6448 53.376 58.6391 51.2488 58.6391L51.2482 58.6397Z" fill="#362B3E" fill-opacity="0.7"/>
<path d="M16.7519 17.0362C14.8122 17.0362 12.9254 16.316 11.4385 15.0083C9.93754 13.6882 8.94777 11.8565 8.65174 9.84995C8.36077 7.88051 8.89216 5.8436 10.1482 4.11534C11.4059 2.38428 13.2017 1.22105 15.2049 0.840434C15.3447 0.81401 15.4683 0.76847 15.5773 0.727991C15.5953 0.721244 15.6127 0.71506 15.6307 0.708313H17.9118C18.0135 0.735299 18.1152 0.762286 18.2168 0.789272C18.473 0.8573 18.7381 0.927015 18.9948 1.00067C22.7584 2.07956 25.2373 5.72778 24.8891 9.67623C24.7306 11.4708 23.9049 13.2058 22.5646 14.5602C21.2221 15.9168 19.4768 16.7776 17.6501 16.9845C17.3523 17.0182 17.0507 17.0351 16.753 17.0351L16.7519 17.0362ZM16.7462 4.06587C14.1325 4.06587 11.9935 6.20454 11.9777 8.83346C11.9626 11.4427 14.0808 13.6011 16.7007 13.6449C16.7266 13.6449 16.753 13.6455 16.7788 13.6455C19.3909 13.6455 21.5288 11.5068 21.5456 8.87732C21.5619 6.26695 19.4431 4.1086 16.8221 4.06643C16.7968 4.06643 16.7715 4.06587 16.7468 4.06587H16.7462Z" fill="#362B3E" fill-opacity="0.7"/>
<path d="M51.2279 17.0362C49.2894 17.0362 47.4031 16.3166 45.9173 15.0095C44.4175 13.6899 43.4272 11.8577 43.1289 9.84944C42.839 7.89686 43.3643 5.87007 44.6074 4.1435C45.8527 2.41356 47.6323 1.24303 49.6185 0.847229C49.7623 0.818556 49.8972 0.774703 50.0157 0.73591C50.0432 0.726914 50.0707 0.717919 50.0982 0.708923H52.3873C52.489 0.73591 52.5912 0.762896 52.6929 0.789883C52.949 0.857911 53.2136 0.927626 53.4703 1.00128C57.2339 2.07792 59.7122 5.7267 59.3645 9.67684C59.2061 11.4714 58.3809 13.2059 57.0401 14.5608C55.6976 15.9174 53.9523 16.7782 52.1255 16.9851C51.8278 17.0188 51.5256 17.0357 51.2273 17.0357L51.2279 17.0362ZM51.224 4.06592C48.6085 4.06592 46.4695 6.20571 46.4554 8.83576C46.4414 11.4461 48.5614 13.6034 51.1813 13.645C51.206 13.645 51.2307 13.6455 51.2554 13.6455C53.8697 13.6455 56.0088 11.5057 56.0234 8.87512C56.038 6.26475 53.918 4.10752 51.2975 4.06648C51.2734 4.06648 51.2487 4.06592 51.2245 4.06592H51.224Z" fill="#362B3E" fill-opacity="0.7"/>
<path d="M16.6906 53.6691C12.2395 53.6618 8.6197 49.9967 8.62195 45.4984C8.62307 43.3226 9.47184 41.2812 11.0115 39.7498C12.5524 38.2177 14.6055 37.3738 16.794 37.3738H16.8007C18.9712 37.3755 21.0081 38.2278 22.5365 39.7739C24.0655 41.3212 24.9064 43.3817 24.9031 45.576C24.9003 47.74 24.047 49.7724 22.5011 51.2994C20.9541 52.8275 18.8954 53.6691 16.7041 53.6691H16.6906ZM16.7507 40.7325C15.4868 40.7325 14.2915 41.2335 13.3843 42.1426C12.4771 43.0522 11.9777 44.252 11.9777 45.5215C11.9777 48.1352 14.1072 50.2835 16.7232 50.3104H16.7715C19.4021 50.3104 21.5439 48.1622 21.5456 45.5209C21.5473 42.9083 19.4178 40.7606 16.7996 40.7331H16.7507V40.7325Z" fill="#362B3E" fill-opacity="0.7"/>
<path d="M51.1701 53.6691C46.7178 53.6624 43.0969 49.9979 43.0986 45.5007C43.0998 43.3249 43.948 41.2829 45.4882 39.7503C47.029 38.2177 49.0822 37.3733 51.269 37.3733H51.2751C53.4462 37.375 55.4836 38.2273 57.0121 39.7728C58.5417 41.3195 59.382 43.3794 59.3792 45.5732C59.3764 47.7377 58.5237 49.7707 56.9784 51.2983C55.4314 52.8269 53.3732 53.6686 51.183 53.6686H51.1695L51.1701 53.6691ZM51.2381 40.7325C48.6294 40.7325 46.4842 42.8616 46.4561 45.4793C46.442 46.7516 46.9347 47.9587 47.843 48.8785C48.7536 49.8005 49.959 50.3093 51.237 50.3105C52.5166 50.3105 53.7209 49.8039 54.632 48.8841C55.5415 47.966 56.0358 46.7589 56.0246 45.4861C56.001 42.8678 53.8563 40.7359 51.2437 40.7331H51.2392L51.2381 40.7325Z" fill="#362B3E" fill-opacity="0.7"/>
</g>
<defs>
<clipPath id="clip0_1294_1915">
<rect width="68" height="66.5833" fill="white" transform="translate(0 0.708313)"/>
</clipPath>
</defs>
</svg>
