<svg width="22" height="17" viewBox="0 0 22 17" fill="none" xmlns="http://www.w3.org/2000/svg">
<path id="Vector" fill-rule="evenodd" clip-rule="evenodd" d="M0.089189 7.697C1.57719 3.226 5.79419 0 10.7672 0C15.7372 0 19.9522 3.223 21.4422 7.69C21.5622 8.052 21.5622 8.442 21.4422 8.803C19.9552 13.274 15.7372 16.5 10.7652 16.5C5.79519 16.5 1.57919 13.277 0.0901891 8.81C-0.030063 8.44874 -0.030063 8.05826 0.0901891 7.697H0.089189ZM16.0162 8.25C16.0162 9.64239 15.4631 10.9777 14.4785 11.9623C13.4939 12.9469 12.1586 13.5 10.7662 13.5C9.3738 13.5 8.03844 12.9469 7.05388 11.9623C6.06931 10.9777 5.51619 9.64239 5.51619 8.25C5.51619 6.85761 6.06931 5.52225 7.05388 4.53769C8.03844 3.55312 9.3738 3 10.7662 3C12.1586 3 13.4939 3.55312 14.4785 4.53769C15.4631 5.52225 16.0162 6.85761 16.0162 8.25Z" fill="#63318A"/>
</svg>
