<svg width="106" height="106" viewBox="0 0 106 106" fill="none" xmlns="http://www.w3.org/2000/svg">
<g clip-path="url(#clip0_1_2)">
<mask id="mask0_1_2" style="mask-type:luminance" maskUnits="userSpaceOnUse" x="0" y="0" width="106" height="106">
<path d="M106 0H0V106H106V0Z" fill="white"/>
</mask>
<g mask="url(#mask0_1_2)">
<path d="M32.2446 56.8721H25.6539C23.3489 56.8721 21.4802 55.0145 21.4802 52.7232V45.407C21.4802 44.7678 20.9577 44.2485 20.3147 44.2485H15.6472C15.0042 44.2485 14.4818 44.7678 14.4818 45.407V56.0503C14.4818 60.4418 18.0642 64.0029 22.482 64.0029H32.2446C32.8876 64.0029 33.4101 63.4836 33.4101 62.8444V58.0306C33.4101 57.3915 32.8876 56.8721 32.2446 56.8721Z" fill="#34AE72"/>
<path d="M55.6997 12.4182H45.937C45.294 12.4182 44.7716 12.9375 44.7716 13.5767V18.3905C44.7716 19.0297 45.294 19.549 45.937 19.549H53.6932C55.3552 19.549 56.7015 20.8873 56.7015 22.5394V31.0142C56.7015 31.6533 57.224 32.1727 57.867 32.1727H62.5344C63.1774 32.1727 63.6999 31.6533 63.6999 31.0142V20.3708C63.6999 15.9793 60.1174 12.4182 55.6997 12.4182Z" fill="#34AE72"/>
<path d="M14.4818 20.3708V30.0754C14.4818 30.7145 15.0042 31.2339 15.6472 31.2339H20.4898C21.1328 31.2339 21.6553 30.7145 21.6553 30.0754V22.3653C21.6553 20.7132 23.0015 19.3749 24.6636 19.3749H33.189C33.832 19.3749 34.3545 18.8556 34.3545 18.2164V13.5767C34.3545 12.9375 33.832 12.4182 33.189 12.4182H22.482C18.0642 12.4182 14.4818 15.9793 14.4818 20.3708Z" fill="#34AE72"/>
<path d="M95.4651 54.5437C96.8516 54.5437 97.9768 55.6623 97.9768 57.0405V95.5279C97.9768 96.9061 96.8516 98.0246 95.4651 98.0246H56.7474C55.361 98.0246 54.2357 96.9061 54.2357 95.5279V57.0405C54.2357 55.6623 55.361 54.5437 56.7474 54.5437H95.4651ZM95.4651 46.5655H56.7474C50.9375 46.5655 46.2097 51.2651 46.2097 57.0405V95.5279C46.2097 101.303 50.9375 106.003 56.7474 106.003H95.4651C101.275 106.003 106.003 101.303 106.003 95.5279V57.0405C106.003 51.2651 101.275 46.5655 95.4651 46.5655Z" fill="#EB5B27"/>
<path d="M65.6059 7.70432C67.5521 7.70432 69.1281 9.27372 69.1281 11.2055V65.2156C69.1281 67.1503 67.5493 68.7168 65.6059 68.7168H11.2726C9.32635 68.7168 7.75043 67.1474 7.75043 65.2156V11.2055C7.75043 9.27086 9.32922 7.70432 11.2726 7.70432H65.6059ZM65.6059 0H11.2726C5.05787 0 0 5.02778 0 11.2055V65.2156C0 71.3962 5.05787 76.4211 11.2726 76.4211H65.6059C71.8235 76.4211 76.8785 71.3933 76.8785 65.2156V11.2055C76.8785 5.02493 71.8206 0 65.6059 0Z" fill="#63318A"/>
<path d="M80.4064 46.5712H64.208V54.5437H80.4064V46.5712Z" fill="#EB5B27"/>
</g>
</g>
<defs>
<clipPath id="clip0_1_2">
<rect width="106" height="106" fill="white"/>
</clipPath>
</defs>
</svg>
