<svg width="35" height="35" viewBox="0 0 35 35" fill="none" xmlns="http://www.w3.org/2000/svg">
<path fill-rule="evenodd" clip-rule="evenodd" d="M4.375 9.84375C4.375 9.55367 4.49023 9.27547 4.69535 9.07035C4.90047 8.86523 5.17867 8.75 5.46875 8.75H29.5312C29.8213 8.75 30.0995 8.86523 30.3046 9.07035C30.5098 9.27547 30.625 9.55367 30.625 9.84375C30.625 10.1338 30.5098 10.412 30.3046 10.6171C30.0995 10.8223 29.8213 10.9375 29.5312 10.9375H5.46875C5.17867 10.9375 4.90047 10.8223 4.69535 10.6171C4.49023 10.412 4.375 10.1338 4.375 9.84375ZM4.375 17.5C4.375 17.2099 4.49023 16.9317 4.69535 16.7266C4.90047 16.5215 5.17867 16.4062 5.46875 16.4062H29.5312C29.8213 16.4062 30.0995 16.5215 30.3046 16.7266C30.5098 16.9317 30.625 17.2099 30.625 17.5C30.625 17.7901 30.5098 18.0683 30.3046 18.2734C30.0995 18.4785 29.8213 18.5938 29.5312 18.5938H5.46875C5.17867 18.5938 4.90047 18.4785 4.69535 18.2734C4.49023 18.0683 4.375 17.7901 4.375 17.5ZM4.375 25.1562C4.375 24.8662 4.49023 24.588 4.69535 24.3829C4.90047 24.1777 5.17867 24.0625 5.46875 24.0625H29.5312C29.8213 24.0625 30.0995 24.1777 30.3046 24.3829C30.5098 24.588 30.625 24.8662 30.625 25.1562C30.625 25.4463 30.5098 25.7245 30.3046 25.9296C30.0995 26.1348 29.8213 26.25 29.5312 26.25H5.46875C5.17867 26.25 4.90047 26.1348 4.69535 25.9296C4.49023 25.7245 4.375 25.4463 4.375 25.1562Z" fill="#1F8B58"/>
</svg>
